<svg viewBox="0 0 23 19" fill="none" xmlns="http://www.w3.org/2000/svg">
  <path d="M10.743 1.32401C11.1211 0.914846 11.7609 0.890061 12.1707 1.26757L21 9.4L12.1707 17.5324C11.7609 17.9099 11.1211 17.8852 10.743 17.476C10.365 17.0669 10.3913 16.4294 10.8008 16.0519L16.9272 10.408L2.00966 10.408C1.45204 10.408 0.999998 9.95671 0.999999 9.4C0.999999 8.84328 1.45204 8.39198 2.00966 8.39198L16.9272 8.39198L10.8008 2.7481C10.3913 2.37058 10.365 1.73308 10.743 1.32401Z" fill="white"/>
  <path d="M10.376 0.984377C10.9419 0.372239 11.8978 0.335748 12.5098 0.899416L21.3389 9.03223L21.7383 9.40039L21.3389 9.76758L12.5098 17.9004C11.8978 18.4641 10.9419 18.4277 10.376 17.8154C9.81001 17.2029 9.84982 16.249 10.4619 15.6846L15.6465 10.9082L2.00976 10.9082C1.1769 10.9082 0.500211 10.2338 0.499999 9.40039L0.507811 9.24609C0.585016 8.48492 1.22869 7.8916 2.00976 7.8916L15.6465 7.8916L10.4619 3.11621C9.84967 2.55183 9.80997 1.59694 10.376 0.984377Z" stroke="black" stroke-opacity="0.2" stroke-linecap="round"/>
</svg>
