<svg viewBox="0 0 23 19" fill="none" xmlns="http://www.w3.org/2000/svg">
  <path d="M11.7336 17.476C11.3555 17.8852 10.7157 17.91 10.3059 17.5325L1.47657 9.40005L10.3059 1.26762C10.7157 0.890111 11.3555 0.914897 11.7336 1.32406C12.1116 1.73314 12.0853 2.37063 11.6757 2.74816L5.5494 8.39203L20.4669 8.39203C21.0245 8.39203 21.4766 8.84334 21.4766 9.40005C21.4766 9.95677 21.0245 10.4081 20.4669 10.4081L5.5494 10.4081L11.6757 16.0519C12.0853 16.4295 12.1116 17.067 11.7336 17.476Z" fill="white"/>
  <path d="M12.1006 17.8157C11.5346 18.4278 10.5788 18.4643 9.9668 17.9006L1.1377 9.76782L0.738282 9.39966L1.1377 9.03247L9.9668 0.899657C10.5788 0.335923 11.5346 0.372371 12.1006 0.984618C12.6665 1.59712 12.6267 2.55107 12.0146 3.11548L6.83008 7.89184L20.4668 7.89185C21.2997 7.89185 21.9764 8.56622 21.9766 9.39966L21.9688 9.55396C21.8915 10.3151 21.2479 10.9084 20.4668 10.9084L6.83008 10.9084L12.0146 15.6838C12.6269 16.2482 12.6666 17.2031 12.1006 17.8157Z" stroke="black" stroke-opacity="0.2" stroke-linecap="round"/>
</svg>
