<svg viewBox="0 0 75 75" fill="none" xmlns="http://www.w3.org/2000/svg">
  <path d="M48.5886 1.0274L37.2872 12.3288H25.6849V1.0274H48.5886ZM26.4114 73.9726L37.7128 62.6712H49.3151V73.9726H26.4114ZM1.0274 50.3425H12.3288V61.9447L1.0274 73.2461V50.3425ZM1.0274 25.6849H12.3288V37.2872L1.0274 48.5886V25.6849ZM12.3288 24.6575H1.75391L12.3288 14.0827V24.6575ZM14.0827 12.3288L24.6575 1.75391V12.3288H14.0827ZM24.6575 24.6575H13.3562V13.3562H24.6575V24.6575ZM25.6849 23.931V13.3562H36.2598L25.6849 23.931ZM49.3151 13.3562V24.6575H26.4114L37.7128 13.3562H49.3151ZM49.3151 12.3288H38.7402L49.3151 1.75391V12.3288ZM61.9447 12.3288H50.3425V1.0274H73.2461L61.9447 12.3288ZM73.9726 24.6575H62.6712V13.0553L73.9726 1.75391V24.6575ZM73.9726 49.3151H62.6712V37.7128L73.9726 26.4114V49.3151ZM62.6712 50.3425H73.2461L62.6712 60.9173V50.3425ZM60.9173 62.6712L50.3425 73.2461V62.6712H60.9173ZM50.3425 50.3425H61.6438V61.6438H50.3425V50.3425ZM49.3151 51.069V61.6438H38.7402L49.3151 51.069ZM25.6849 61.6438V50.3425H48.5886L37.2872 61.6438H25.6849ZM25.6849 62.6712H36.2598L25.6849 73.2461V62.6712ZM13.0553 62.6712H24.6575V73.9726H1.75391L13.0553 62.6712ZM24.6575 51.069V61.6438H14.0827L24.6575 51.069ZM23.931 50.3425L13.3562 60.9173V50.3425H23.931ZM13.3562 36.2598V25.6849H23.931L13.3562 36.2598ZM49.3151 49.3151H25.6849V25.6849H49.3151V49.3151ZM50.3425 23.931V13.3562H60.9173L50.3425 23.931ZM51.069 24.6575L61.6438 14.0827V24.6575H51.069ZM61.6438 38.7402V49.3151H51.069L61.6438 38.7402ZM62.6712 25.6849H73.2461L62.6712 36.2598V25.6849ZM61.6438 37.2872L50.3425 48.5886V25.6849H61.6438V37.2872ZM12.3288 49.3151H1.75391L12.3288 38.7402V49.3151ZM13.3562 37.7128L24.6575 26.4114V49.3151H13.3562V37.7128ZM0.513702 75H49.8288C49.9653 75 50.0959 74.9457 50.1928 74.8488L74.8488 50.1928C74.9457 50.0959 75 49.9653 75 49.8288V0.513702C75 0.230431 74.771 0 74.4863 0H25.1712C25.0347 0 24.9041 0.0543137 24.8072 0.151184L0.151184 24.8072C0.0543137 24.9041 0 25.0347 0 25.1712V74.4863C0 74.7696 0.228966 75 0.513702 75Z" fill="#2B2A28"/>
</svg>
