<svg viewBox="0 0 52 52" fill="none" xmlns="http://www.w3.org/2000/svg">
  <path d="M33.3083 15.4165L33.3884 15.6079L37.7703 26.1851L33.3083 36.9546L33.1169 37.0347L22.5388 41.4165L11.9617 37.0347L11.7703 36.9546L7.30835 26.1851L11.7693 15.4165L22.5388 10.9546L33.3083 15.4165ZM12.5339 16.1812L8.39038 26.1841L12.5349 36.1899L22.5388 40.3325L32.5427 36.1899L36.6873 26.1841L32.5437 16.1812L22.5388 12.0366L12.5339 16.1812Z" fill="#2B2A28"/>
  <path d="M38.2302 15.4165L38.3103 15.6079L42.6921 26.1851L38.2302 36.9546L38.0388 37.0347L27.4607 41.4165L16.8835 37.0347L16.6921 36.9546L12.2302 26.1851L16.6912 15.4165L27.4607 10.9546L38.2302 15.4165ZM17.4558 16.1812L13.3123 26.1841L17.4568 36.1899L27.4607 40.3325L37.4646 36.1899L41.6091 26.1841L37.4656 16.1812L27.4607 12.0366L17.4558 16.1812Z" fill="#2B2A28"/>
</svg>
