<svg viewBox="0 0 57 57" fill="none" xmlns="http://www.w3.org/2000/svg">
  <path d="M0 0C20.1871 1.78125 52.2638 10.5034 52.2678 37.052C52.2658 37.4201 52.2638 57 52.2638 57H57C57 57 57 37.2736 57 37.0124C57 8.90625 21.3746 0 0 0Z" fill="#2B2A28"/>
  <path d="M0 0C12.8779 3.59615 42.2931 13.6563 42.2931 37.0757V57H46.9765V38.1425C46.9883 37.7526 47 37.3805 47 37.0065C47 10.6875 15.2591 2.96875 0 0Z" fill="#2B2A28"/>
  <path d="M0 0C10.0461 4.78365 33.2682 19.287 33.2682 38.1425V57H38V37.0757C38 14.8438 7.11528 2.375 0 0Z" fill="#2B2A28"/>
  <path d="M0 0C9.60602 7.15865 24.1917 23.089 24.1917 37.0757V57H29V37.0757C29 19.5938 7.79837 4.78365 0 0Z" fill="#2B2A28"/>
  <path d="M0 0C4.6905 5.3774 14.2872 21.4086 14.2872 36.8125V57H19C19 57 18.8642 45.4892 18.8642 36.8461C18.8642 22.036 6.46221 5.97115 0 0Z" fill="#2B2A28"/>
  <path d="M0 0C3.66494 7.7524 4.89843 16.6586 5.07914 35.6586C5.24628 53.2079 5.07914 57 5.07914 57H10V35.6586C10 21.941 4.89844 7.15865 0 0Z" fill="#2B2A28"/>
</svg>
