<svg viewBox="0 0 52 52" fill="none" xmlns="http://www.w3.org/2000/svg">
<path d="M15.2573 21.5991L18.7886 22.314L19.1138 22.3794L19.8931 26.2349L19.9136 26.3345L19.8931 26.4331L19.1782 29.9644L19.1128 30.2896L15.2573 31.0688L15.1587 31.0894L15.0591 31.0688L11.2036 30.2896L11.1382 29.9644L10.4233 26.4331L10.4038 26.3345L10.4233 26.2349L11.1372 22.7046L11.2036 22.3794L11.5288 22.314L15.0591 21.5991L15.1587 21.5796L15.2573 21.5991ZM12.0513 23.228L11.4233 26.3335L12.0522 29.4399L15.1577 30.0679L18.2632 29.4399L18.8921 26.3335L18.2642 23.228L15.1577 22.5991L12.0513 23.228Z" fill="#2B2A28"/>
<path d="M15.2573 32.7632L18.7886 33.478L19.1138 33.5435L19.8931 37.3989L19.9136 37.4985L19.8931 37.5972L19.1128 41.4526L18.7876 41.519L15.2573 42.2329L15.1587 42.2534L15.0591 42.2329L11.5288 41.519L11.2036 41.4526L10.4233 37.5972L10.4038 37.4985L10.4233 37.3989L11.1372 33.8687L11.2036 33.5435L11.5288 33.478L15.0591 32.7632L15.1587 32.7437L15.2573 32.7632ZM12.0513 34.3921L11.4233 37.4976L12.0522 40.604L15.1577 41.2319L18.2632 40.604L18.8921 37.4976L18.2642 34.3921L15.1577 33.7632L12.0513 34.3921Z" fill="#2B2A28"/>
<path d="M36.189 21.5991L40.0444 22.3794L40.1108 22.7046L40.8247 26.2349L40.8452 26.3345L40.8247 26.4331L40.1099 29.9644L40.0444 30.2896L36.189 31.0688L36.0903 31.0894L35.9907 31.0688L32.1353 30.2896L32.0698 29.9644L31.355 26.4331L31.3354 26.3345L31.355 26.2349L32.0688 22.7046L32.1353 22.3794L32.4604 22.314L35.9907 21.5991L36.0903 21.5796L36.189 21.5991ZM32.9829 23.228L32.355 26.3335L32.9839 29.4399L36.0894 30.0679L39.1958 29.4399L39.8237 26.3335L39.1958 23.228L36.0894 22.5991L32.9829 23.228Z" fill="#2B2A28"/>
<path d="M36.189 32.7632L40.0444 33.5435L40.1108 33.8687L40.8247 37.3989L40.8452 37.4985L40.8247 37.5972L40.1099 41.1284L40.0444 41.4536L36.189 42.2329L36.0903 42.2534L35.9907 42.2329L32.4604 41.519L32.1353 41.4526L31.355 37.5972L31.3354 37.4985L31.355 37.3989L32.0688 33.8687L32.1353 33.5435L32.4604 33.478L35.9907 32.7632L36.0903 32.7437L36.189 32.7632ZM32.9829 34.3921L32.355 37.4976L32.9839 40.604L36.0894 41.2319L39.1958 40.604L39.8237 37.4976L39.1958 34.3921L36.0894 33.7632L32.9829 34.3921Z" fill="#2B2A28"/>
<path d="M25.9565 21.5991L29.4878 22.314L29.813 22.3794L30.5923 26.2349L30.6128 26.3345L30.5923 26.4331L29.8774 29.9644L29.812 30.2896L25.9565 31.0688L25.8579 31.0894L25.7583 31.0688L21.9028 30.2896L21.8374 29.9644L21.1226 26.4331L21.103 26.3345L21.1226 26.2349L21.8364 22.7046L21.9028 22.3794L22.228 22.314L25.7583 21.5991L25.8579 21.5796L25.9565 21.5991ZM22.7505 23.228L22.1226 26.3335L22.7515 29.4399L25.8569 30.0679L28.9624 29.4399L29.5913 26.3335L28.9634 23.228L25.8569 22.5991L22.7505 23.228Z" fill="#2B2A28"/>
<path d="M25.9565 32.7632L29.4878 33.478L29.813 33.5435L30.5923 37.3989L30.6128 37.4985L30.5923 37.5972L29.812 41.4526L29.4868 41.519L25.9565 42.2329L25.8579 42.2534L25.7583 42.2329L22.228 41.519L21.9028 41.4526L21.1226 37.5972L21.103 37.4985L21.1226 37.3989L21.8364 33.8687L21.9028 33.5435L22.228 33.478L25.7583 32.7632L25.8579 32.7437L25.9565 32.7632ZM22.7505 34.3921L22.1226 37.4976L22.7515 40.604L25.8569 41.2319L28.9624 40.604L29.5913 37.4976L28.9634 34.3921L25.8569 33.7632L22.7505 34.3921Z" fill="#2B2A28"/>
<path d="M25.9565 10.4355L29.4878 11.1504L29.813 11.2158L30.5923 15.0713L30.6128 15.1709L30.5923 15.2695L29.8774 18.8008L29.812 19.126L25.9565 19.9053L25.8579 19.9258L25.7583 19.9053L21.9028 19.126L21.8374 18.8008L21.1226 15.2695L21.103 15.1709L21.1226 15.0713L21.8364 11.541L21.9028 11.2158L22.228 11.1504L25.7583 10.4355L25.8579 10.416L25.9565 10.4355ZM22.7505 12.0645L22.1226 15.1699L22.7515 18.2764L25.8569 18.9043L28.9624 18.2764L29.5913 15.1699L28.9634 12.0645L25.8569 11.4355L22.7505 12.0645Z" fill="#2B2A28"/>
<path d="M15.2573 10.4355L18.7886 11.1504L19.1138 11.2158L19.8931 15.0713L19.9136 15.1709L19.8931 15.2695L19.1782 18.8008L19.1128 19.126L15.2573 19.9053L15.1587 19.9258L15.0591 19.9053L11.2036 19.126L11.1382 18.8008L10.4233 15.2695L10.4038 15.1709L10.4233 15.0713L11.1372 11.541L11.2036 11.2158L11.5288 11.1504L15.0591 10.4355L15.1587 10.416L15.2573 10.4355ZM12.0513 12.0645L11.4233 15.1699L12.0522 18.2764L15.1577 18.9043L18.2632 18.2764L18.8921 15.1699L18.2642 12.0645L15.1577 11.4355L12.0513 12.0645Z" fill="#2B2A28"/>
<path d="M36.189 10.4355L40.0444 11.2158L40.1108 11.541L40.8247 15.0713L40.8452 15.1709L40.8247 15.2695L40.1099 18.8008L40.0444 19.126L36.189 19.9053L36.0903 19.9258L35.9907 19.9053L32.1353 19.126L32.0698 18.8008L31.355 15.2695L31.3354 15.1709L31.355 15.0713L32.0688 11.541L32.1353 11.2158L32.4604 11.1504L35.9907 10.4355L36.0903 10.416L36.189 10.4355ZM32.9829 12.0645L32.355 15.1699L32.9839 18.2764L36.0894 18.9043L39.1958 18.2764L39.8237 15.1699L39.1958 12.0645L36.0894 11.4355L32.9829 12.0645Z" fill="#2B2A28"/>
</svg>
