<svg viewBox="0 0 57 57" fill="none" xmlns="http://www.w3.org/2000/svg">
  <path d="M29.338 56.999C29.338 41.7225 41.7223 29.338 56.999 29.338H43.1685C35.5302 29.338 29.338 35.5297 29.338 43.1685V56.999Z" fill="#2B2A28"/>
  <path d="M0.000154495 29.338C15.2767 29.338 27.6611 41.7225 27.6611 56.999V43.1685C27.6611 35.5297 21.4695 29.338 13.8306 29.338H0.000154495Z" fill="#2B2A28"/>
  <path d="M27.6611 -1.33514e-05C27.6611 14.8136 15.2767 26.8228 0.000154495 26.8228H13.8306C21.4695 26.8228 27.6611 20.8188 27.6611 13.4114V-1.33514e-05Z" fill="#2B2A28"/>
  <path d="M56.999 26.8228C41.7223 26.8228 29.338 14.8136 29.338 -1.33514e-05V13.4114C29.338 20.8188 35.5302 26.8228 43.1685 26.8228H56.999Z" fill="#2B2A28"/>
</svg>
