<svg viewBox="0 0 52 52" fill="none" xmlns="http://www.w3.org/2000/svg">
<path d="M21.2969 26.2725L21.2979 26.2734L26.2383 37.0195L15.4922 32.0791L4.74609 37.0195L9.68652 26.2734L4.74609 15.5273L15.4922 20.4688L26.2383 15.5273L21.2969 26.2725ZM15.9092 21.3779L15.7002 21.4736L15.4922 21.5684L15.2842 21.4736L15.0762 21.3779L6.78223 17.5645L10.5957 25.8564L10.5967 25.8574L10.6924 26.0654L10.7871 26.2734L10.6914 26.4814L10.5957 26.6914L6.7832 34.9814L15.0742 31.1699L15.4922 30.9785L15.9102 31.1699L24.2002 34.9814L20.3887 26.6914L20.293 26.4814L20.1973 26.2734L20.292 26.0654L20.3877 25.8574L24.2002 17.5645L15.9092 21.3779Z" fill="#2B2A28"/>
<path d="M42.3125 26.2725L42.3135 26.2734L47.2539 37.0195L36.5078 32.0791L25.7617 37.0195L30.7021 26.2734L25.7617 15.5273L36.5078 20.4688L47.2539 15.5273L42.3125 26.2725ZM36.9248 21.3779L36.7158 21.4736L36.5078 21.5684L36.2998 21.4736L36.0918 21.3779L27.7988 17.5645L31.6123 25.8564L31.708 26.0654L31.8027 26.2734L31.707 26.4814L31.6113 26.6914L27.7988 34.9814L36.0898 31.1699L36.5078 30.9785L36.9258 31.1699L45.2158 34.9814L41.4043 26.6914L41.3086 26.4814L41.2129 26.2734L41.3076 26.0654L41.4033 25.8574L45.2158 17.5645L36.9248 21.3779Z" fill="#2B2A28"/>
</svg>
