<svg viewBox="0 0 52 52" fill="none" xmlns="http://www.w3.org/2000/svg">
  <path d="M18.8577 35.1133V35.1172L20.4875 42.9482L12.6594 41.3184H12.6565L12.6536 41.3193L12.6526 41.3184L4.82544 42.9482L6.45435 35.1172L4.82544 27.2861L12.6565 28.915L20.4875 27.2861L18.8577 35.1133ZM12.8606 29.8945L12.8577 29.8955L12.7551 29.916L12.6565 29.9355L12.5569 29.916L12.4553 29.8945H12.4524L6.1145 28.5752L7.43384 34.9131V34.915L7.45532 35.0176L7.47485 35.1172L7.45532 35.2168L7.43384 35.3184V35.3213L6.1145 41.6582L12.4524 40.3398L12.4553 40.3389L12.5569 40.3184L12.6565 40.2979L12.7551 40.3184L12.8577 40.3389L12.8606 40.3398L19.1965 41.6572L17.8792 35.3213L17.8782 35.3184L17.8577 35.2168L17.8372 35.1172L17.8577 35.0176L17.8782 34.916L17.8792 34.9131L19.1975 28.5752L12.8606 29.8945Z" fill="#2B2A28"/>
  <path d="M27.5842 17.6577V17.6616L29.2141 25.4927L21.386 23.8628H21.3831L21.3801 23.8638L21.3792 23.8628L13.552 25.4927L15.1809 17.6616L13.552 9.83057L21.3831 11.4595L29.2141 9.83057L27.5842 17.6577ZM21.5872 12.439H21.5842L21.4827 12.4604L21.3831 12.48L21.2834 12.4604L21.1819 12.439H21.179L14.8411 11.1196L16.1604 17.4575L16.1614 17.4604L16.1819 17.562L16.2014 17.6616L16.1819 17.7612L16.1604 17.8628V17.8657L14.8411 24.2026L21.179 22.8843L21.1819 22.8833L21.2834 22.8628L21.3831 22.8423L21.4827 22.8628L21.5842 22.8833L21.5872 22.8843L27.9231 24.2017L26.6057 17.8657L26.6047 17.8628L26.5842 17.7612L26.5637 17.6616L26.5842 17.562L26.6047 17.4604L26.6057 17.4575L27.9241 11.1196L21.5872 12.439Z" fill="#2B2A28"/>
  <path d="M36.3127 35.2339V35.2378L37.9426 43.0688L30.1145 41.439H30.1116L30.1086 41.4399L30.1077 41.439L22.2805 43.0688L23.9094 35.2378L22.2805 27.4067L30.1116 29.0356L37.9426 27.4067L36.3127 35.2339ZM30.3157 30.0151L30.3127 30.0161L30.2112 30.0366L30.1116 30.0562L30.012 30.0366L29.9104 30.0151H29.9075L23.5696 28.6958L24.8889 35.0337L24.8899 35.0366L24.9104 35.1382L24.9299 35.2378L24.9104 35.3374L24.8889 35.439V35.4419L23.5696 41.7788L29.9075 40.4604L29.9104 40.4595L30.012 40.439L30.1116 40.4185L30.2112 40.439L30.3127 40.4595L30.3157 40.4604L36.6516 41.7778L35.3342 35.4419L35.3333 35.439L35.3127 35.3374L35.2922 35.2378L35.3127 35.1382L35.3333 35.0366L35.3342 35.0337L36.6526 28.6958L30.3157 30.0151Z" fill="#2B2A28"/>
  <path d="M45.0374 17.6577V17.6616L46.6672 25.4927L38.8391 23.8628H38.8352L38.8333 23.8638L38.8323 23.8628L31.0051 25.4927L32.634 17.6616L31.0051 9.83057L38.8352 11.4595L46.6672 9.83057L45.0374 17.6577ZM39.0403 12.439H39.0374L38.9348 12.4604L38.8362 12.48L38.7366 12.4604L38.634 12.439H38.6321L32.2942 11.1196L33.6135 17.4575V17.4595L33.635 17.562L33.6545 17.6616L33.635 17.7612L33.6135 17.8638V17.8657L32.2942 24.2026L38.6321 22.8843L38.634 22.8833L38.7366 22.8628L38.8362 22.8423L38.9348 22.8628L39.0374 22.8833L39.0403 22.8843L45.3762 24.2017L44.0588 17.8657L44.0579 17.8628L44.0374 17.7612L44.0168 17.6616L44.0374 17.562L44.0579 17.4604L44.0588 17.4575L45.3772 11.1196L39.0403 12.439Z" fill="#2B2A28"/>
</svg>
