<svg viewBox="0 0 72 73" fill="none" xmlns="http://www.w3.org/2000/svg">
  <path d="M36.5 0.0185547L37.7451 33.6338L70.1016 24.4316L70.4102 25.3818L38.8242 36.9541L57.5752 64.8828L56.7666 65.4707L36 39.0068L15.2334 65.4707L14.4248 64.8828L33.1748 36.9541L1.58984 25.3818L1.89844 24.4316L34.2539 33.6338L35.5 0.0185547H36.5Z" stroke="#2B2A28"/>
  <path d="M36.5 72.0557L37.7451 38.4404L70.1016 47.6426L70.4102 46.6924L38.8242 35.1201L57.5752 7.19141L56.7666 6.60352L36 33.0674L15.2334 6.60352L14.4248 7.19141L33.1748 35.1201L1.58984 46.6924L1.89844 47.6426L34.2539 38.4404L35.5 72.0557H36.5Z" stroke="#2B2A28"/>
</svg>
