<svg width="102" height="113" viewBox="0 0 102 113" fill="none" xmlns="http://www.w3.org/2000/svg">
<path d="M102 51C102 89.1665 51 113 51 113C51 113 0 89.1665 0 51C0 22.8335 22.8335 0 51 0C79.1665 0 102 22.8335 102 51Z" fill="#2B2A28"/>
<g clip-path="url(#clip0_2_2647)">
<path d="M34.7941 44C36.32 44 37.5597 44.4545 38.5134 45.3636C39.4861 46.2538 39.9725 47.6932 39.9725 49.6818V58.7727H37.2259V49.5682C37.2259 47.2955 36.2055 46.1591 34.1647 46.1591C33.478 46.1591 32.8391 46.3864 32.2478 46.8409C31.6756 47.2955 31.2178 47.9015 30.8745 48.6591C30.5312 49.4167 30.3595 50.2311 30.3595 51.1023V58.7727H27.613V49.9091C27.613 48.697 27.3936 47.7689 26.9549 47.125C26.5353 46.4811 25.8201 46.1591 24.8092 46.1591C24.2561 46.1591 23.6552 46.3864 23.0068 46.8409C22.3773 47.2765 21.8433 47.9015 21.4046 48.7159C20.9659 49.5114 20.7466 50.4205 20.7466 51.4432V58.7727H18V44.2273H20.7466V45.2784C20.7466 45.7898 20.6512 46.2917 20.4605 46.7841C20.346 47.0871 20.3556 47.2576 20.4891 47.2955H20.5463C20.6226 47.2955 20.7084 47.2292 20.8038 47.0966C21.3569 46.1307 22.0436 45.3731 22.8637 44.8239C23.7029 44.2746 24.6185 44 25.6103 44C26.6593 44 27.5462 44.2557 28.271 44.767C28.9958 45.2784 29.4535 46.017 29.6443 46.983C29.6824 47.1345 29.7778 47.2102 29.9304 47.2102C30.0257 47.2102 30.0925 47.1913 30.1306 47.1534C30.1688 47.1155 30.1974 47.0682 30.2165 47.0114C30.617 46.178 31.2464 45.4678 32.1047 44.8807C32.963 44.2936 33.8595 44 34.7941 44Z" fill="white"/>
<path d="M41.6857 54.7102C41.6857 53.1951 42.2389 52.1061 43.3451 51.4432C44.4705 50.7614 46.0917 50.3731 48.2088 50.2784L49.4963 50.2216C50.7551 50.1837 51.6993 50.1364 52.3287 50.0795C52.9772 50.0038 53.5017 49.8617 53.9022 49.6534C54.3028 49.4451 54.503 49.1136 54.503 48.6591C54.4649 46.9924 52.8437 46.1591 49.6393 46.1591C48.0562 46.1591 46.8832 46.3769 46.1203 46.8125C45.3764 47.2481 44.9473 47.8258 44.8328 48.5455H42.1435C42.3915 46.9924 43.183 45.8466 44.5181 45.108C45.8533 44.3693 47.6366 44 49.8682 44C52.157 44 53.9594 44.464 55.2755 45.392C56.5916 46.3201 57.2496 48.0152 57.2496 50.4773V58.7727H54.503V57.1534C54.503 56.5852 54.5984 56.0549 54.7891 55.5625C54.8464 55.392 54.875 55.2689 54.875 55.1932C54.894 55.1174 54.8559 55.0606 54.7605 55.0227H54.7033C54.627 55.0227 54.5412 55.108 54.4458 55.2784C53.7592 56.4527 52.8913 57.3712 51.8423 58.0341C50.7933 58.678 49.4677 59 47.8655 59C46.5876 59 45.4813 58.8106 44.5468 58.4318C43.6122 58.0341 42.8969 57.5133 42.401 56.8693C41.9242 56.2064 41.6857 55.4867 41.6857 54.7102ZM54.503 50.6477C54.0834 51.1212 53.3491 51.5 52.3001 51.7841C51.2701 52.0492 49.9254 52.2386 48.2661 52.3523C46.9118 52.447 45.9296 52.6648 45.3192 53.0057C44.7279 53.3466 44.4323 53.8674 44.4323 54.5682C44.4323 55.3068 44.7756 55.8939 45.4623 56.3295C46.168 56.7652 47.2838 56.9356 48.8096 56.8409C50.469 56.7462 51.8232 56.1496 52.8723 55.0511C53.9404 53.9527 54.484 52.4848 54.503 50.6477Z" fill="white"/>
<path d="M59.1904 54.7102C59.1904 53.1951 59.7435 52.1061 60.8498 51.4432C61.9751 50.7614 63.5963 50.3731 65.7135 50.2784L67.0009 50.2216C68.2598 50.1837 69.2039 50.1364 69.8333 50.0795C70.4818 50.0038 71.0063 49.8617 71.4069 49.6534C71.8074 49.4451 72.0077 49.1136 72.0077 48.6591C71.9695 46.9924 70.3483 46.1591 67.144 46.1591C65.5609 46.1591 64.3879 46.3769 63.6249 46.8125C62.8811 47.2481 62.4519 47.8258 62.3375 48.5455H59.6481C59.8961 46.9924 60.6876 45.8466 62.0228 45.108C63.3579 44.3693 65.1413 44 67.3729 44C69.6617 44 71.4641 44.464 72.7801 45.392C74.0962 46.3201 74.7542 48.0152 74.7542 50.4773V58.7727H72.0077V57.1534C72.0077 56.5852 72.103 56.0549 72.2938 55.5625C72.351 55.392 72.3796 55.2689 72.3796 55.1932C72.3987 55.1174 72.3605 55.0606 72.2652 55.0227H72.2079C72.1317 55.0227 72.0458 55.108 71.9505 55.2784C71.2638 56.4527 70.396 57.3712 69.3469 58.0341C68.2979 58.678 66.9723 59 65.3701 59C64.0922 59 62.986 58.8106 62.0514 58.4318C61.1168 58.0341 60.4015 57.5133 59.9056 56.8693C59.4288 56.2064 59.1904 55.4867 59.1904 54.7102ZM72.0077 50.6477C71.5881 51.1212 70.8537 51.5 69.8047 51.7841C68.7747 52.0492 67.4301 52.2386 65.7707 52.3523C64.4165 52.447 63.4342 52.6648 62.8239 53.0057C62.2326 53.3466 61.9369 53.8674 61.9369 54.5682C61.9369 55.3068 62.2803 55.8939 62.9669 56.3295C63.6726 56.7652 64.7884 56.9356 66.3143 56.8409C67.9737 56.7462 69.3279 56.1496 70.3769 55.0511C71.445 53.9527 71.9886 52.4848 72.0077 50.6477Z" fill="white"/>
<path d="M79.9333 48.0341C80.0287 48.0341 80.1145 47.9583 80.1908 47.8068C80.8775 46.4053 81.7167 45.4205 82.7085 44.8523C83.7194 44.2841 85.1499 44 87 44V46.5568C86.8283 46.5379 86.5804 46.5284 86.2561 46.5284C84.3297 46.5284 82.8229 47.0303 81.7358 48.0341C80.6676 49.0379 80.1336 50.4489 80.1336 52.267V58.7727H77.387V44.2273H80.1336V45.8182C80.1336 46.4432 80.0382 47.0114 79.8475 47.5227C79.7903 47.6742 79.7617 47.7973 79.7617 47.892C79.7617 47.9678 79.8093 48.0152 79.9047 48.0341H79.9333Z" fill="white"/>
</g>
<defs>
<clipPath id="clip0_2_2647">
<rect width="69" height="15" fill="white" transform="translate(18 44)"/>
</clipPath>
</defs>
</svg>
