<svg viewBox="0 0 58 13" fill="none" xmlns="http://www.w3.org/2000/svg">
  <g clip-path="url(#clip0_2_3114)">
    <path d="M14.1168 0C15.3994 0 16.4415 0.382082 17.2431 1.14625C18.0608 1.89449 18.4696 3.10441 18.4696 4.77602V12.4177H16.1609V4.6805C16.1609 2.77009 15.3032 1.81489 13.5877 1.81489C13.0105 1.81489 12.4734 2.00593 11.9764 2.38801C11.4954 2.77009 11.1106 3.27953 10.8221 3.91634C10.5335 4.55314 10.3892 5.2377 10.3892 5.97003V12.4177H8.08047V4.96706C8.08047 3.94818 7.89609 3.16809 7.52734 2.62681C7.17462 2.08553 6.5734 1.81489 5.72366 1.81489C5.25872 1.81489 4.75369 2.00593 4.20858 2.38801C3.6795 2.75417 3.23058 3.27953 2.86183 3.9641C2.49308 4.63274 2.3087 5.3969 2.3087 6.25659V12.4177H0V0.191041H2.3087V1.07461C2.3087 1.50445 2.22854 1.92633 2.06821 2.34025C1.97202 2.59497 1.98003 2.73825 2.09226 2.77009H2.14036C2.20449 2.77009 2.27664 2.71437 2.3568 2.60293C2.82175 1.79101 3.39893 1.15421 4.08833 0.692523C4.79377 0.230841 5.56334 0 6.39704 0C7.27883 0 8.02435 0.214921 8.63359 0.644763C9.24284 1.0746 9.62762 1.69549 9.78794 2.50741C9.82001 2.63477 9.90017 2.69845 10.0284 2.69845C10.1086 2.69845 10.1647 2.68253 10.1968 2.65069C10.2288 2.61885 10.2529 2.57905 10.2689 2.53129C10.6056 1.83081 11.1347 1.23381 11.8562 0.740284C12.5776 0.246761 13.3312 0 14.1168 0Z" fill="#2B2A28"/>
    <path d="M19.9098 9.0028C19.9098 7.72919 20.3747 6.81379 21.3046 6.25659C22.2505 5.68347 23.6133 5.3571 25.3929 5.2775L26.4751 5.22974C27.5333 5.1979 28.3269 5.1581 28.856 5.11034C29.4011 5.04666 29.842 4.92726 30.1787 4.75214C30.5154 4.57702 30.6837 4.29842 30.6837 3.91634C30.6516 2.51537 29.2889 1.81489 26.5954 1.81489C25.2647 1.81489 24.2787 1.99797 23.6374 2.36413C23.0121 2.73029 22.6513 3.21585 22.5551 3.82082H20.2945C20.503 2.51537 21.1683 1.55221 22.2906 0.931324C23.4129 0.310441 24.912 0 26.7878 0C28.7117 0 30.2268 0.390042 31.333 1.17013C32.4393 1.95021 32.9924 3.37506 32.9924 5.44466V12.4177H30.6837V11.0565C30.6837 10.5789 30.7639 10.1331 30.9242 9.7192C30.9723 9.57592 30.9964 9.47244 30.9964 9.40876C31.0124 9.34508 30.9803 9.29732 30.9002 9.26548H30.8521C30.7879 9.26548 30.7158 9.33712 30.6356 9.4804C30.0584 10.4674 29.329 11.2396 28.4472 11.7968C27.5654 12.3381 26.4511 12.6087 25.1043 12.6087C24.0302 12.6087 23.1003 12.4495 22.3147 12.1311C21.5291 11.7968 20.9278 11.359 20.511 10.8177C20.1102 10.2605 19.9098 9.65552 19.9098 9.0028ZM30.6837 5.58794C30.331 5.98595 29.7137 6.30435 28.8319 6.54315C27.9662 6.76603 26.8359 6.92523 25.441 7.02075C24.3027 7.10035 23.477 7.28343 22.964 7.56999C22.467 7.85655 22.2185 8.29436 22.2185 8.8834C22.2185 9.50428 22.507 9.9978 23.0842 10.364C23.6774 10.7301 24.6153 10.8734 25.898 10.7938C27.2928 10.7142 28.4311 10.2127 29.3129 9.28936C30.2107 8.366 30.6677 7.13219 30.6837 5.58794Z" fill="#2B2A28"/>
    <path d="M34.6238 9.0028C34.6238 7.72919 35.0888 6.81379 36.0186 6.25659C36.9646 5.68347 38.3274 5.3571 40.107 5.2775L41.1892 5.22974C42.2473 5.1979 43.041 5.1581 43.57 5.11034C44.1151 5.04666 44.556 4.92726 44.8927 4.75214C45.2294 4.57702 45.3978 4.29842 45.3978 3.91634C45.3657 2.51537 44.0029 1.81489 41.3094 1.81489C39.9787 1.81489 38.9927 1.99797 38.3514 2.36413C37.7261 2.73029 37.3654 3.21585 37.2692 3.82082H35.0086C35.217 2.51537 35.8824 1.55221 37.0047 0.931324C38.1269 0.310441 39.626 0 41.5018 0C43.4257 0 44.9408 0.390042 46.0471 1.17013C47.1533 1.95021 47.7065 3.37506 47.7065 5.44466V12.4177H45.3978V11.0565C45.3978 10.5789 45.4779 10.1331 45.6382 9.7192C45.6863 9.57592 45.7104 9.47244 45.7104 9.40876C45.7264 9.34508 45.6944 9.29732 45.6142 9.26548H45.5661C45.502 9.26548 45.4298 9.33712 45.3497 9.4804C44.7725 10.4674 44.043 11.2396 43.1612 11.7968C42.2794 12.3381 41.1651 12.6087 39.8184 12.6087C38.7442 12.6087 37.8143 12.4495 37.0287 12.1311C36.2431 11.7968 35.6419 11.359 35.225 10.8177C34.8242 10.2605 34.6238 9.65552 34.6238 9.0028ZM45.3978 5.58794C45.045 5.98595 44.4278 6.30435 43.546 6.54315C42.6802 6.76603 41.5499 6.92523 40.1551 7.02075C39.0168 7.10035 38.1911 7.28343 37.678 7.56999C37.181 7.85655 36.9325 8.29436 36.9325 8.8834C36.9325 9.50428 37.2211 9.9978 37.7983 10.364C38.3915 10.7301 39.3294 10.8734 40.612 10.7938C42.0068 10.7142 43.1452 10.2127 44.027 9.28936C44.9248 8.366 45.3817 7.13219 45.3978 5.58794Z" fill="#2B2A28"/>
    <path d="M52.0599 3.39097C52.1401 3.39097 52.2122 3.3273 52.2763 3.19993C52.8535 2.02185 53.559 1.19401 54.3927 0.716404C55.2424 0.238801 56.4448 0 58 0V2.14921C57.8557 2.13329 57.6473 2.12533 57.3747 2.12533C55.7554 2.12533 54.4888 2.54721 53.575 3.39097C52.6772 4.23474 52.2282 5.42078 52.2282 6.94911V12.4177H49.9195V0.191041H52.2282V1.52833C52.2282 2.05369 52.1481 2.53129 51.9877 2.96113C51.9396 3.08849 51.9156 3.19197 51.9156 3.27157C51.9156 3.33526 51.9557 3.37506 52.0358 3.39097H52.0599Z" fill="#2B2A28"/>
  </g>
  <defs>
  <clipPath id="clip0_2_3114">
  <rect width="58" height="12.6087" fill="white"/>
  </clipPath>
  </defs>
</svg>
