<svg viewBox="0 0 688 144" fill="none" xmlns="http://www.w3.org/2000/svg">
<path d="M8 15.5C3.85786 15.5 0.5 12.1421 0.500001 8C0.500001 3.85786 3.85787 0.499999 8 0.499999C12.1421 0.5 15.5 3.85787 15.5 8C15.5 12.1421 12.1421 15.5 8 15.5Z" fill="#F5F5F5" stroke="#2B2A28"/>
<path d="M24 15.5C19.8579 15.5 16.5 12.1421 16.5 8C16.5 3.85786 19.8579 0.499999 24 0.499999C28.1421 0.5 31.5 3.85787 31.5 8C31.5 12.1421 28.1421 15.5 24 15.5Z" fill="#F5F5F5" stroke="#2B2A28"/>
<path d="M40 15.5C35.8579 15.5 32.5 12.1421 32.5 8C32.5 3.85786 35.8579 0.499999 40 0.499999C44.1421 0.5 47.5 3.85787 47.5 8C47.5 12.1421 44.1421 15.5 40 15.5Z" fill="#F5F5F5" stroke="#2B2A28"/>
<path d="M56 15.5C51.8579 15.5 48.5 12.1421 48.5 8C48.5 3.85786 51.8579 0.499999 56 0.499999C60.1421 0.5 63.5 3.85787 63.5 8C63.5 12.1421 60.1421 15.5 56 15.5Z" fill="#F5F5F5" stroke="#2B2A28"/>
<path d="M72 15.5C67.8579 15.5 64.5 12.1421 64.5 8C64.5 3.85786 67.8579 0.499999 72 0.499999C76.1421 0.5 79.5 3.85787 79.5 8C79.5 12.1421 76.1421 15.5 72 15.5Z" fill="#F5F5F5" stroke="#2B2A28"/>
<path d="M88 15.5C83.8579 15.5 80.5 12.1421 80.5 8C80.5 3.85786 83.8579 0.499999 88 0.499999C92.1421 0.5 95.5 3.85787 95.5 8C95.5 12.1421 92.1421 15.5 88 15.5Z" fill="#F5F5F5" stroke="#2B2A28"/>
<path d="M104 15.5C99.8579 15.5 96.5 12.1421 96.5 8C96.5 3.85786 99.8579 0.499999 104 0.499999C108.142 0.5 111.5 3.85787 111.5 8C111.5 12.1421 108.142 15.5 104 15.5Z" fill="#F5F5F5" stroke="#2B2A28"/>
<path d="M120 15.5C115.858 15.5 112.5 12.1421 112.5 8C112.5 3.85786 115.858 0.499999 120 0.499999C124.142 0.5 127.5 3.85787 127.5 8C127.5 12.1421 124.142 15.5 120 15.5Z" fill="#F5F5F5" stroke="#2B2A28"/>
<path d="M136 15.5C131.858 15.5 128.5 12.1421 128.5 8C128.5 3.85786 131.858 0.499999 136 0.499999C140.142 0.5 143.5 3.85787 143.5 8C143.5 12.1421 140.142 15.5 136 15.5Z" fill="#F5F5F5" stroke="#2B2A28"/>
<path d="M152 15.5C147.858 15.5 144.5 12.1421 144.5 8C144.5 3.85786 147.858 0.499999 152 0.499999C156.142 0.5 159.5 3.85787 159.5 8C159.5 12.1421 156.142 15.5 152 15.5Z" fill="#F5F5F5" stroke="#2B2A28"/>
<path d="M168 15.5C163.858 15.5 160.5 12.1421 160.5 8C160.5 3.85786 163.858 0.499999 168 0.499999C172.142 0.5 175.5 3.85787 175.5 8C175.5 12.1421 172.142 15.5 168 15.5Z" fill="#F5F5F5" stroke="#2B2A28"/>
<path d="M184 15.5C179.858 15.5 176.5 12.1421 176.5 8C176.5 3.85786 179.858 0.499999 184 0.499999C188.142 0.5 191.5 3.85787 191.5 8C191.5 12.1421 188.142 15.5 184 15.5Z" fill="#F5F5F5" stroke="#2B2A28"/>
<path d="M200 15.5C195.858 15.5 192.5 12.1421 192.5 8C192.5 3.85786 195.858 0.499999 200 0.499999C204.142 0.5 207.5 3.85787 207.5 8C207.5 12.1421 204.142 15.5 200 15.5Z" fill="#F5F5F5" stroke="#2B2A28"/>
<path d="M216 15.5C211.858 15.5 208.5 12.1421 208.5 8C208.5 3.85786 211.858 0.499999 216 0.499999C220.142 0.5 223.5 3.85787 223.5 8C223.5 12.1421 220.142 15.5 216 15.5Z" fill="#F5F5F5" stroke="#2B2A28"/>
<path d="M232 15.5C227.858 15.5 224.5 12.1421 224.5 8C224.5 3.85786 227.858 0.499999 232 0.499999C236.142 0.5 239.5 3.85787 239.5 8C239.5 12.1421 236.142 15.5 232 15.5Z" fill="#F5F5F5" stroke="#2B2A28"/>
<path d="M248 15.5C243.858 15.5 240.5 12.1421 240.5 8C240.5 3.85786 243.858 0.499999 248 0.499999C252.142 0.5 255.5 3.85787 255.5 8C255.5 12.1421 252.142 15.5 248 15.5Z" fill="#F5F5F5" stroke="#2B2A28"/>
<path d="M264 15.5C259.858 15.5 256.5 12.1421 256.5 8C256.5 3.85786 259.858 0.499999 264 0.499999C268.142 0.5 271.5 3.85787 271.5 8C271.5 12.1421 268.142 15.5 264 15.5Z" fill="#F5F5F5" stroke="#2B2A28"/>
<path d="M280 15.5C275.858 15.5 272.5 12.1421 272.5 8C272.5 3.85786 275.858 0.499999 280 0.499999C284.142 0.5 287.5 3.85787 287.5 8C287.5 12.1421 284.142 15.5 280 15.5Z" fill="#F5F5F5" stroke="#2B2A28"/>
<path d="M296 15.5C291.858 15.5 288.5 12.1421 288.5 8C288.5 3.85786 291.858 0.499999 296 0.499999C300.142 0.5 303.5 3.85787 303.5 8C303.5 12.1421 300.142 15.5 296 15.5Z" fill="#F5F5F5" stroke="#2B2A28"/>
<path d="M312 15.5C307.858 15.5 304.5 12.1421 304.5 8C304.5 3.85786 307.858 0.499999 312 0.499999C316.142 0.5 319.5 3.85787 319.5 8C319.5 12.1421 316.142 15.5 312 15.5Z" fill="#F5F5F5" stroke="#2B2A28"/>
<path d="M328 15.5C323.858 15.5 320.5 12.1421 320.5 8C320.5 3.85786 323.858 0.499999 328 0.499999C332.142 0.5 335.5 3.85787 335.5 8C335.5 12.1421 332.142 15.5 328 15.5Z" fill="#F5F5F5" stroke="#2B2A28"/>
<path d="M344 15.5C339.858 15.5 336.5 12.1421 336.5 8C336.5 3.85786 339.858 0.499999 344 0.499999C348.142 0.5 351.5 3.85787 351.5 8C351.5 12.1421 348.142 15.5 344 15.5Z" fill="#F5F5F5" stroke="#2B2A28"/>
<path d="M360 15.5C355.858 15.5 352.5 12.1421 352.5 8C352.5 3.85786 355.858 0.499999 360 0.499999C364.142 0.5 367.5 3.85787 367.5 8C367.5 12.1421 364.142 15.5 360 15.5Z" fill="#F5F5F5" stroke="#2B2A28"/>
<path d="M376 15.5C371.858 15.5 368.5 12.1421 368.5 8C368.5 3.85786 371.858 0.499999 376 0.499999C380.142 0.5 383.5 3.85787 383.5 8C383.5 12.1421 380.142 15.5 376 15.5Z" fill="#F5F5F5" stroke="#2B2A28"/>
<path d="M392 15.5C387.858 15.5 384.5 12.1421 384.5 8C384.5 3.85786 387.858 0.499999 392 0.499999C396.142 0.5 399.5 3.85787 399.5 8C399.5 12.1421 396.142 15.5 392 15.5Z" fill="#F5F5F5" stroke="#2B2A28"/>
<path d="M408 15.5C403.858 15.5 400.5 12.1421 400.5 8C400.5 3.85786 403.858 0.499999 408 0.499999C412.142 0.5 415.5 3.85787 415.5 8C415.5 12.1421 412.142 15.5 408 15.5Z" fill="#F5F5F5" stroke="#2B2A28"/>
<path d="M424 15.5C419.858 15.5 416.5 12.1421 416.5 8C416.5 3.85786 419.858 0.499999 424 0.499999C428.142 0.5 431.5 3.85787 431.5 8C431.5 12.1421 428.142 15.5 424 15.5Z" fill="#F5F5F5" stroke="#2B2A28"/>
<path d="M440 15.5C435.858 15.5 432.5 12.1421 432.5 8C432.5 3.85786 435.858 0.499999 440 0.499999C444.142 0.5 447.5 3.85787 447.5 8C447.5 12.1421 444.142 15.5 440 15.5Z" fill="#F5F5F5" stroke="#2B2A28"/>
<path d="M456 15.5C451.858 15.5 448.5 12.1421 448.5 8C448.5 3.85786 451.858 0.499999 456 0.499999C460.142 0.5 463.5 3.85787 463.5 8C463.5 12.1421 460.142 15.5 456 15.5Z" fill="#F5F5F5" stroke="#2B2A28"/>
<path d="M472 15.5C467.858 15.5 464.5 12.1421 464.5 8C464.5 3.85786 467.858 0.499999 472 0.499999C476.142 0.5 479.5 3.85787 479.5 8C479.5 12.1421 476.142 15.5 472 15.5Z" fill="#F5F5F5" stroke="#2B2A28"/>
<path d="M488 15.5C483.858 15.5 480.5 12.1421 480.5 8C480.5 3.85786 483.858 0.499999 488 0.499999C492.142 0.5 495.5 3.85787 495.5 8C495.5 12.1421 492.142 15.5 488 15.5Z" fill="#F5F5F5" stroke="#2B2A28"/>
<path d="M504 15.5C499.858 15.5 496.5 12.1421 496.5 8C496.5 3.85786 499.858 0.499999 504 0.499999C508.142 0.5 511.5 3.85787 511.5 8C511.5 12.1421 508.142 15.5 504 15.5Z" fill="#F5F5F5" stroke="#2B2A28"/>
<path d="M520 15.5C515.858 15.5 512.5 12.1421 512.5 8C512.5 3.85786 515.858 0.499999 520 0.499999C524.142 0.5 527.5 3.85787 527.5 8C527.5 12.1421 524.142 15.5 520 15.5Z" fill="#F5F5F5" stroke="#2B2A28"/>
<path d="M536 15.5C531.858 15.5 528.5 12.1421 528.5 8C528.5 3.85786 531.858 0.499999 536 0.499999C540.142 0.5 543.5 3.85787 543.5 8C543.5 12.1421 540.142 15.5 536 15.5Z" fill="#F5F5F5" stroke="#2B2A28"/>
<path d="M552 15.5C547.858 15.5 544.5 12.1421 544.5 8C544.5 3.85786 547.858 0.499999 552 0.499999C556.142 0.5 559.5 3.85787 559.5 8C559.5 12.1421 556.142 15.5 552 15.5Z" fill="#F5F5F5" stroke="#2B2A28"/>
<path d="M568 15.5C563.858 15.5 560.5 12.1421 560.5 8C560.5 3.85786 563.858 0.499999 568 0.499999C572.142 0.5 575.5 3.85787 575.5 8C575.5 12.1421 572.142 15.5 568 15.5Z" fill="#F5F5F5" stroke="#2B2A28"/>
<path d="M584 15.5C579.858 15.5 576.5 12.1421 576.5 8C576.5 3.85786 579.858 0.499999 584 0.499999C588.142 0.5 591.5 3.85787 591.5 8C591.5 12.1421 588.142 15.5 584 15.5Z" fill="#F5F5F5" stroke="#2B2A28"/>
<path d="M600 15.5C595.858 15.5 592.5 12.1421 592.5 8C592.5 3.85786 595.858 0.499999 600 0.499999C604.142 0.5 607.5 3.85787 607.5 8C607.5 12.1421 604.142 15.5 600 15.5Z" fill="#F5F5F5" stroke="#2B2A28"/>
<path d="M616 15.5C611.858 15.5 608.5 12.1421 608.5 8C608.5 3.85786 611.858 0.499999 616 0.499999C620.142 0.5 623.5 3.85787 623.5 8C623.5 12.1421 620.142 15.5 616 15.5Z" fill="#F5F5F5" stroke="#2B2A28"/>
<path d="M632 15.5C627.858 15.5 624.5 12.1421 624.5 8C624.5 3.85786 627.858 0.499999 632 0.499999C636.142 0.5 639.5 3.85787 639.5 8C639.5 12.1421 636.142 15.5 632 15.5Z" fill="#F5F5F5" stroke="#2B2A28"/>
<path d="M648 15.5C643.858 15.5 640.5 12.1421 640.5 8C640.5 3.85786 643.858 0.499999 648 0.499999C652.142 0.5 655.5 3.85787 655.5 8C655.5 12.1421 652.142 15.5 648 15.5Z" fill="#F5F5F5" stroke="#2B2A28"/>
<path d="M664 15.5C659.858 15.5 656.5 12.1421 656.5 8C656.5 3.85786 659.858 0.499999 664 0.499999C668.142 0.5 671.5 3.85787 671.5 8C671.5 12.1421 668.142 15.5 664 15.5Z" fill="#F5F5F5" stroke="#2B2A28"/>
<ellipse cx="680" cy="8" rx="8" ry="8" transform="rotate(-180 680 8)" fill="#2B2A28"/>
<path d="M520 111.5C515.858 111.5 512.5 108.142 512.5 104C512.5 99.8579 515.858 96.5 520 96.5C524.142 96.5 527.5 99.8579 527.5 104C527.5 108.142 524.142 111.5 520 111.5Z" fill="#F5F5F5" stroke="#2B2A28"/>
<path d="M536 111.5C531.858 111.5 528.5 108.142 528.5 104C528.5 99.8579 531.858 96.5 536 96.5C540.142 96.5 543.5 99.8579 543.5 104C543.5 108.142 540.142 111.5 536 111.5Z" fill="#F5F5F5" stroke="#2B2A28"/>
<path d="M552 111.5C547.858 111.5 544.5 108.142 544.5 104C544.5 99.8579 547.858 96.5 552 96.5C556.142 96.5 559.5 99.8579 559.5 104C559.5 108.142 556.142 111.5 552 111.5Z" fill="#F5F5F5" stroke="#2B2A28"/>
<path d="M568 111.5C563.858 111.5 560.5 108.142 560.5 104C560.5 99.8579 563.858 96.5 568 96.5C572.142 96.5 575.5 99.8579 575.5 104C575.5 108.142 572.142 111.5 568 111.5Z" fill="#F5F5F5" stroke="#2B2A28"/>
<path d="M584 111.5C579.858 111.5 576.5 108.142 576.5 104C576.5 99.8579 579.858 96.5 584 96.5C588.142 96.5 591.5 99.8579 591.5 104C591.5 108.142 588.142 111.5 584 111.5Z" fill="#F5F5F5" stroke="#2B2A28"/>
<path d="M600 111.5C595.858 111.5 592.5 108.142 592.5 104C592.5 99.8579 595.858 96.5 600 96.5C604.142 96.5 607.5 99.8579 607.5 104C607.5 108.142 604.142 111.5 600 111.5Z" fill="#F5F5F5" stroke="#2B2A28"/>
<path d="M616 111.5C611.858 111.5 608.5 108.142 608.5 104C608.5 99.8579 611.858 96.5 616 96.5C620.142 96.5 623.5 99.8579 623.5 104C623.5 108.142 620.142 111.5 616 111.5Z" fill="#F5F5F5" stroke="#2B2A28"/>
<path d="M632 111.5C627.858 111.5 624.5 108.142 624.5 104C624.5 99.8579 627.858 96.5 632 96.5C636.142 96.5 639.5 99.8579 639.5 104C639.5 108.142 636.142 111.5 632 111.5Z" fill="#F5F5F5" stroke="#2B2A28"/>
<path d="M648 111.5C643.858 111.5 640.5 108.142 640.5 104C640.5 99.8579 643.858 96.5 648 96.5C652.142 96.5 655.5 99.8579 655.5 104C655.5 108.142 652.142 111.5 648 111.5Z" fill="#F5F5F5" stroke="#2B2A28"/>
<path d="M664 111.5C659.858 111.5 656.5 108.142 656.5 104C656.5 99.8579 659.858 96.5 664 96.5C668.142 96.5 671.5 99.8579 671.5 104C671.5 108.142 668.142 111.5 664 111.5Z" fill="#F5F5F5" stroke="#2B2A28"/>
<ellipse cx="680" cy="104" rx="8" ry="8" transform="rotate(-180 680 104)" fill="#2B2A28"/>
<path d="M664 143.5C659.858 143.5 656.5 140.142 656.5 136C656.5 131.858 659.858 128.5 664 128.5C668.142 128.5 671.5 131.858 671.5 136C671.5 140.142 668.142 143.5 664 143.5Z" fill="#F5F5F5" stroke="#2B2A28"/>
<ellipse cx="680" cy="136" rx="8" ry="8" transform="rotate(-180 680 136)" fill="#2B2A28"/>
<path d="M520 79.5C515.858 79.5 512.5 76.1421 512.5 72C512.5 67.8579 515.858 64.5 520 64.5C524.142 64.5 527.5 67.8579 527.5 72C527.5 76.1421 524.142 79.5 520 79.5Z" fill="#F5F5F5" stroke="#2B2A28"/>
<path d="M536 79.5C531.858 79.5 528.5 76.1421 528.5 72C528.5 67.8579 531.858 64.5 536 64.5C540.142 64.5 543.5 67.8579 543.5 72C543.5 76.1421 540.142 79.5 536 79.5Z" fill="#F5F5F5" stroke="#2B2A28"/>
<path d="M552 79.5C547.858 79.5 544.5 76.1421 544.5 72C544.5 67.8579 547.858 64.5 552 64.5C556.142 64.5 559.5 67.8579 559.5 72C559.5 76.1421 556.142 79.5 552 79.5Z" fill="#F5F5F5" stroke="#2B2A28"/>
<path d="M568 79.5C563.858 79.5 560.5 76.1421 560.5 72C560.5 67.8579 563.858 64.5 568 64.5C572.142 64.5 575.5 67.8579 575.5 72C575.5 76.1421 572.142 79.5 568 79.5Z" fill="#F5F5F5" stroke="#2B2A28"/>
<path d="M584 79.5C579.858 79.5 576.5 76.1421 576.5 72C576.5 67.8579 579.858 64.5 584 64.5C588.142 64.5 591.5 67.8579 591.5 72C591.5 76.1421 588.142 79.5 584 79.5Z" fill="#F5F5F5" stroke="#2B2A28"/>
<path d="M600 79.5C595.858 79.5 592.5 76.1421 592.5 72C592.5 67.8579 595.858 64.5 600 64.5C604.142 64.5 607.5 67.8579 607.5 72C607.5 76.1421 604.142 79.5 600 79.5Z" fill="#F5F5F5" stroke="#2B2A28"/>
<path d="M616 79.5C611.858 79.5 608.5 76.1421 608.5 72C608.5 67.8579 611.858 64.5 616 64.5C620.142 64.5 623.5 67.8579 623.5 72C623.5 76.1421 620.142 79.5 616 79.5Z" fill="#F5F5F5" stroke="#2B2A28"/>
<path d="M632 79.5C627.858 79.5 624.5 76.1421 624.5 72C624.5 67.8579 627.858 64.5 632 64.5C636.142 64.5 639.5 67.8579 639.5 72C639.5 76.1421 636.142 79.5 632 79.5Z" fill="#F5F5F5" stroke="#2B2A28"/>
<path d="M648 79.5C643.858 79.5 640.5 76.1421 640.5 72C640.5 67.8579 643.858 64.5 648 64.5C652.142 64.5 655.5 67.8579 655.5 72C655.5 76.1421 652.142 79.5 648 79.5Z" fill="#F5F5F5" stroke="#2B2A28"/>
<path d="M664 79.5C659.858 79.5 656.5 76.1421 656.5 72C656.5 67.8579 659.858 64.5 664 64.5C668.142 64.5 671.5 67.8579 671.5 72C671.5 76.1421 668.142 79.5 664 79.5Z" fill="#F5F5F5" stroke="#2B2A28"/>
<ellipse cx="680" cy="72" rx="8" ry="8" transform="rotate(-180 680 72)" fill="#2B2A28"/>
<path d="M88 47.5C83.8579 47.5 80.5 44.1421 80.5 40C80.5 35.8579 83.8579 32.5 88 32.5C92.1421 32.5 95.5 35.8579 95.5 40C95.5 44.1421 92.1421 47.5 88 47.5Z" fill="#F5F5F5" stroke="#2B2A28"/>
<path d="M104 47.5C99.8579 47.5 96.5 44.1421 96.5 40C96.5 35.8579 99.8579 32.5 104 32.5C108.142 32.5 111.5 35.8579 111.5 40C111.5 44.1421 108.142 47.5 104 47.5Z" fill="#F5F5F5" stroke="#2B2A28"/>
<path d="M232 47.5C227.858 47.5 224.5 44.1421 224.5 40C224.5 35.8579 227.858 32.5 232 32.5C236.142 32.5 239.5 35.8579 239.5 40C239.5 44.1421 236.142 47.5 232 47.5Z" fill="#F5F5F5" stroke="#2B2A28"/>
<path d="M248 47.5C243.858 47.5 240.5 44.1421 240.5 40C240.5 35.8579 243.858 32.5 248 32.5C252.142 32.5 255.5 35.8579 255.5 40C255.5 44.1421 252.142 47.5 248 47.5Z" fill="#F5F5F5" stroke="#2B2A28"/>
<path d="M376 47.5C371.858 47.5 368.5 44.1421 368.5 40C368.5 35.8579 371.858 32.5 376 32.5C380.142 32.5 383.5 35.8579 383.5 40C383.5 44.1421 380.142 47.5 376 47.5Z" fill="#F5F5F5" stroke="#2B2A28"/>
<path d="M392 47.5C387.858 47.5 384.5 44.1421 384.5 40C384.5 35.8579 387.858 32.5 392 32.5C396.142 32.5 399.5 35.8579 399.5 40C399.5 44.1421 396.142 47.5 392 47.5Z" fill="#F5F5F5" stroke="#2B2A28"/>
<path d="M520 47.5C515.858 47.5 512.5 44.1421 512.5 40C512.5 35.8579 515.858 32.5 520 32.5C524.142 32.5 527.5 35.8579 527.5 40C527.5 44.1421 524.142 47.5 520 47.5Z" fill="#F5F5F5" stroke="#2B2A28"/>
<path d="M536 47.5C531.858 47.5 528.5 44.1421 528.5 40C528.5 35.8579 531.858 32.5 536 32.5C540.142 32.5 543.5 35.8579 543.5 40C543.5 44.1421 540.142 47.5 536 47.5Z" fill="#F5F5F5" stroke="#2B2A28"/>
<path d="M664 47.5C659.858 47.5 656.5 44.1421 656.5 40C656.5 35.8579 659.858 32.5 664 32.5C668.142 32.5 671.5 35.8579 671.5 40C671.5 44.1421 668.142 47.5 664 47.5Z" fill="#F5F5F5" stroke="#2B2A28"/>
<ellipse cx="680" cy="40" rx="8" ry="8" transform="rotate(-180 680 40)" fill="#2B2A28"/>
</svg>
