<svg viewBox="0 0 496 144" fill="none" xmlns="http://www.w3.org/2000/svg">
<path d="M8 15.5C3.85786 15.5 0.5 12.1421 0.500001 8C0.500001 3.85786 3.85787 0.499999 8 0.499999C12.1421 0.5 15.5 3.85787 15.5 8C15.5 12.1421 12.1421 15.5 8 15.5Z" stroke="#2B2A28"/>
<path d="M24 15.5C19.8579 15.5 16.5 12.1421 16.5 8C16.5 3.85786 19.8579 0.499999 24 0.499999C28.1421 0.5 31.5 3.85787 31.5 8C31.5 12.1421 28.1421 15.5 24 15.5Z" stroke="#2B2A28"/>
<path d="M40 15.5C35.8579 15.5 32.5 12.1421 32.5 8C32.5 3.85786 35.8579 0.499999 40 0.499999C44.1421 0.5 47.5 3.85787 47.5 8C47.5 12.1421 44.1421 15.5 40 15.5Z" stroke="#2B2A28"/>
<path d="M56 15.5C51.8579 15.5 48.5 12.1421 48.5 8C48.5 3.85786 51.8579 0.499999 56 0.499999C60.1421 0.5 63.5 3.85787 63.5 8C63.5 12.1421 60.1421 15.5 56 15.5Z" stroke="#2B2A28"/>
<path d="M72 15.5C67.8579 15.5 64.5 12.1421 64.5 8C64.5 3.85786 67.8579 0.499999 72 0.499999C76.1421 0.5 79.5 3.85787 79.5 8C79.5 12.1421 76.1421 15.5 72 15.5Z" stroke="#2B2A28"/>
<path d="M88 15.5C83.8579 15.5 80.5 12.1421 80.5 8C80.5 3.85786 83.8579 0.499999 88 0.499999C92.1421 0.5 95.5 3.85787 95.5 8C95.5 12.1421 92.1421 15.5 88 15.5Z" stroke="#2B2A28"/>
<path d="M104 15.5C99.8579 15.5 96.5 12.1421 96.5 8C96.5 3.85786 99.8579 0.499999 104 0.499999C108.142 0.5 111.5 3.85787 111.5 8C111.5 12.1421 108.142 15.5 104 15.5Z" stroke="#2B2A28"/>
<path d="M120 15.5C115.858 15.5 112.5 12.1421 112.5 8C112.5 3.85786 115.858 0.499999 120 0.499999C124.142 0.5 127.5 3.85787 127.5 8C127.5 12.1421 124.142 15.5 120 15.5Z" stroke="#2B2A28"/>
<ellipse cx="136" cy="8" rx="8" ry="8" transform="rotate(-180 136 8)" fill="#2B2A28"/>
<path d="M184 79.5C179.858 79.5 176.5 76.1421 176.5 72C176.5 67.8579 179.858 64.5 184 64.5C188.142 64.5 191.5 67.8579 191.5 72C191.5 76.1421 188.142 79.5 184 79.5Z" stroke="#2B2A28"/>
<path d="M200 79.5C195.858 79.5 192.5 76.1421 192.5 72C192.5 67.8579 195.858 64.5 200 64.5C204.142 64.5 207.5 67.8579 207.5 72C207.5 76.1421 204.142 79.5 200 79.5Z" stroke="#2B2A28"/>
<path d="M216 79.5C211.858 79.5 208.5 76.1421 208.5 72C208.5 67.8579 211.858 64.5 216 64.5C220.142 64.5 223.5 67.8579 223.5 72C223.5 76.1421 220.142 79.5 216 79.5Z" stroke="#2B2A28"/>
<path d="M232 79.5C227.858 79.5 224.5 76.1421 224.5 72C224.5 67.8579 227.858 64.5 232 64.5C236.142 64.5 239.5 67.8579 239.5 72C239.5 76.1421 236.142 79.5 232 79.5Z" stroke="#2B2A28"/>
<path d="M248 79.5C243.858 79.5 240.5 76.1421 240.5 72C240.5 67.8579 243.858 64.5 248 64.5C252.142 64.5 255.5 67.8579 255.5 72C255.5 76.1421 252.142 79.5 248 79.5Z" stroke="#2B2A28"/>
<path d="M264 79.5C259.858 79.5 256.5 76.1421 256.5 72C256.5 67.8579 259.858 64.5 264 64.5C268.142 64.5 271.5 67.8579 271.5 72C271.5 76.1421 268.142 79.5 264 79.5Z" stroke="#2B2A28"/>
<path d="M280 79.5C275.858 79.5 272.5 76.1421 272.5 72C272.5 67.8579 275.858 64.5 280 64.5C284.142 64.5 287.5 67.8579 287.5 72C287.5 76.1421 284.142 79.5 280 79.5Z" stroke="#2B2A28"/>
<path d="M296 79.5C291.858 79.5 288.5 76.1421 288.5 72C288.5 67.8579 291.858 64.5 296 64.5C300.142 64.5 303.5 67.8579 303.5 72C303.5 76.1421 300.142 79.5 296 79.5Z" stroke="#2B2A28"/>
<ellipse cx="312" cy="72" rx="8" ry="8" transform="rotate(-180 312 72)" fill="#2B2A28"/>
<path d="M328 111.5C323.858 111.5 320.5 108.142 320.5 104C320.5 99.8579 323.858 96.5 328 96.5C332.142 96.5 335.5 99.8579 335.5 104C335.5 108.142 332.142 111.5 328 111.5Z" stroke="#2B2A28"/>
<ellipse cx="344" cy="104" rx="8" ry="8" transform="rotate(-180 344 104)" fill="#2B2A28"/>
<path d="M88 47.5C83.8579 47.5 80.5 44.1421 80.5 40C80.5 35.8579 83.8579 32.5 88 32.5C92.1421 32.5 95.5 35.8579 95.5 40C95.5 44.1421 92.1421 47.5 88 47.5Z" stroke="#2B2A28"/>
<path d="M104 47.5C99.8579 47.5 96.5 44.1421 96.5 40C96.5 35.8579 99.8579 32.5 104 32.5C108.142 32.5 111.5 35.8579 111.5 40C111.5 44.1421 108.142 47.5 104 47.5Z" stroke="#2B2A28"/>
<path d="M120 47.5C115.858 47.5 112.5 44.1421 112.5 40C112.5 35.8579 115.858 32.5 120 32.5C124.142 32.5 127.5 35.8579 127.5 40C127.5 44.1421 124.142 47.5 120 47.5Z" stroke="#2B2A28"/>
<path d="M136 47.5C131.858 47.5 128.5 44.1421 128.5 40C128.5 35.8579 131.858 32.5 136 32.5C140.142 32.5 143.5 35.8579 143.5 40C143.5 44.1421 140.142 47.5 136 47.5Z" stroke="#2B2A28"/>
<path d="M152 47.5C147.858 47.5 144.5 44.1421 144.5 40C144.5 35.8579 147.858 32.5 152 32.5C156.142 32.5 159.5 35.8579 159.5 40C159.5 44.1421 156.142 47.5 152 47.5Z" stroke="#2B2A28"/>
<path d="M168 47.5C163.858 47.5 160.5 44.1421 160.5 40C160.5 35.8579 163.858 32.5 168 32.5C172.142 32.5 175.5 35.8579 175.5 40C175.5 44.1421 172.142 47.5 168 47.5Z" stroke="#2B2A28"/>
<path d="M184 47.5C179.858 47.5 176.5 44.1421 176.5 40C176.5 35.8579 179.858 32.5 184 32.5C188.142 32.5 191.5 35.8579 191.5 40C191.5 44.1421 188.142 47.5 184 47.5Z" stroke="#2B2A28"/>
<path d="M200 47.5C195.858 47.5 192.5 44.1421 192.5 40C192.5 35.8579 195.858 32.5 200 32.5C204.142 32.5 207.5 35.8579 207.5 40C207.5 44.1421 204.142 47.5 200 47.5Z" stroke="#2B2A28"/>
<path d="M216 47.5C211.858 47.5 208.5 44.1421 208.5 40C208.5 35.8579 211.858 32.5 216 32.5C220.142 32.5 223.5 35.8579 223.5 40C223.5 44.1421 220.142 47.5 216 47.5Z" stroke="#2B2A28"/>
<ellipse cx="232" cy="40" rx="8" ry="8" transform="rotate(-180 232 40)" fill="#2B2A28"/>
<path d="M328 143.5C323.858 143.5 320.5 140.142 320.5 136C320.5 131.858 323.858 128.5 328 128.5C332.142 128.5 335.5 131.858 335.5 136C335.5 140.142 332.142 143.5 328 143.5Z" fill="#F5F5F5" stroke="#2B2A28"/>
<path d="M344 143.5C339.858 143.5 336.5 140.142 336.5 136C336.5 131.858 339.858 128.5 344 128.5C348.142 128.5 351.5 131.858 351.5 136C351.5 140.142 348.142 143.5 344 143.5Z" fill="#F5F5F5" stroke="#2B2A28"/>
<path d="M360 143.5C355.858 143.5 352.5 140.142 352.5 136C352.5 131.858 355.858 128.5 360 128.5C364.142 128.5 367.5 131.858 367.5 136C367.5 140.142 364.142 143.5 360 143.5Z" fill="#F5F5F5" stroke="#2B2A28"/>
<path d="M376 143.5C371.858 143.5 368.5 140.142 368.5 136C368.5 131.858 371.858 128.5 376 128.5C380.142 128.5 383.5 131.858 383.5 136C383.5 140.142 380.142 143.5 376 143.5Z" fill="#F5F5F5" stroke="#2B2A28"/>
<path d="M392 143.5C387.858 143.5 384.5 140.142 384.5 136C384.5 131.858 387.858 128.5 392 128.5C396.142 128.5 399.5 131.858 399.5 136C399.5 140.142 396.142 143.5 392 143.5Z" fill="#F5F5F5" stroke="#2B2A28"/>
<path d="M408 143.5C403.858 143.5 400.5 140.142 400.5 136C400.5 131.858 403.858 128.5 408 128.5C412.142 128.5 415.5 131.858 415.5 136C415.5 140.142 412.142 143.5 408 143.5Z" fill="#F5F5F5" stroke="#2B2A28"/>
<path d="M424 143.5C419.858 143.5 416.5 140.142 416.5 136C416.5 131.858 419.858 128.5 424 128.5C428.142 128.5 431.5 131.858 431.5 136C431.5 140.142 428.142 143.5 424 143.5Z" fill="#F5F5F5" stroke="#2B2A28"/>
<path d="M440 143.5C435.858 143.5 432.5 140.142 432.5 136C432.5 131.858 435.858 128.5 440 128.5C444.142 128.5 447.5 131.858 447.5 136C447.5 140.142 444.142 143.5 440 143.5Z" fill="#F5F5F5" stroke="#2B2A28"/>
<path d="M456 143.5C451.858 143.5 448.5 140.142 448.5 136C448.5 131.858 451.858 128.5 456 128.5C460.142 128.5 463.5 131.858 463.5 136C463.5 140.142 460.142 143.5 456 143.5Z" fill="#F5F5F5" stroke="#2B2A28"/>
<path d="M472 143.5C467.858 143.5 464.5 140.142 464.5 136C464.5 131.858 467.858 128.5 472 128.5C476.142 128.5 479.5 131.858 479.5 136C479.5 140.142 476.142 143.5 472 143.5Z" stroke="#2B2A28"/>
<ellipse cx="488" cy="136" rx="8" ry="8" transform="rotate(-180 488 136)" fill="#2B2A28"/>
</svg>
