<svg width="221" height="129" viewBox="0 0 221 129" fill="none" xmlns="http://www.w3.org/2000/svg">
  <path d="M46 40.8274C21.6535 40.8274 1.91666 60.1336 1.91666 83.9524C1.91666 107.768 21.6535 127.077 46 127.077C70.3465 127.077 90.0833 107.768 90.0833 83.9524C90.0833 60.1336 70.3465 40.8274 46 40.8274ZM-7.62939e-06 128.952V38.9524H92V128.952H-7.62939e-06Z" fill="#2B2A28"/>
  <path d="M187.106 33.8936C169.87 16.6577 142.22 16.3624 125.346 33.2366C108.474 50.1086 108.767 77.7607 126.003 94.9966C143.239 112.233 170.891 112.526 187.763 95.6537C204.637 78.7795 204.342 51.1296 187.106 33.8936ZM92.1094 63.7596L155.869 -0.000101336L221 65.1307L157.24 128.89L92.1094 63.7596Z" fill="#2B2A28"/>
</svg>
