<svg width="100" height="100" viewBox="0 0 100 100" fill="none" xmlns="http://www.w3.org/2000/svg">
<g clip-path="url(#clip0_2_5098)">
<path d="M28.0755 41.6734L28.0044 41.855L28.0755 42.038L33.9001 56.9004L19.0378 51.0757L18.8555 51.0039L18.6732 51.0757L3.81081 56.9004L9.63546 42.038L9.70658 41.855L9.63546 41.6734L3.81011 26.8104L18.6732 32.6357L18.8555 32.7061L19.0378 32.6357L33.9008 26.8104L28.0755 41.6734Z" stroke="#2B2A28"/>
<path d="M59.0755 71.608L59.0044 71.7896L59.0755 71.9726L64.9001 86.8349L50.0378 81.0103L49.8555 80.9385L49.6732 81.0103L34.8108 86.8349L40.6355 71.9726L40.7066 71.7896L40.6355 71.608L34.8101 56.7449L49.6732 62.5703L49.8555 62.6407L50.0378 62.5703L64.9008 56.7449L59.0755 71.608Z" stroke="#2B2A28"/>
<path d="M32.0755 38.6734L32.0044 38.855L32.0755 39.038L37.9001 53.9004L23.0378 48.0757L22.8555 48.0039L22.6732 48.0757L7.81081 53.9004L13.6355 39.038L13.7066 38.855L13.6355 38.6734L7.81011 23.8104L22.6732 29.6357L22.8555 29.7061L23.0378 29.6357L37.9008 23.8104L32.0755 38.6734Z" stroke="#2B2A28"/>
<path d="M63.0755 68.608L63.0044 68.7896L63.0755 68.9726L68.9001 83.8349L54.0378 78.0103L53.8555 77.9385L53.6732 78.0103L38.8108 83.8349L44.6355 68.9726L44.7066 68.7896L44.6355 68.608L38.8101 53.7449L53.6732 59.5703L53.8555 59.6407L54.0378 59.5703L68.9008 53.7449L63.0755 68.608Z" stroke="#2B2A28"/>
<path d="M35.0755 34.6734L35.0044 34.855L35.0755 35.038L40.9001 49.9004L26.0378 44.0757L25.8555 44.0039L25.6732 44.0757L10.8108 49.9004L16.6355 35.038L16.7066 34.855L16.6355 34.6734L10.8101 19.8104L25.6732 25.6357L25.8555 25.7061L26.0378 25.6357L40.9008 19.8104L35.0755 34.6734Z" stroke="#2B2A28"/>
<path d="M66.0755 64.608L66.0044 64.7896L66.0755 64.9726L71.9001 79.8349L57.0378 74.0103L56.8555 73.9385L56.6732 74.0103L41.8108 79.8349L47.6355 64.9726L47.7066 64.7896L47.6355 64.608L41.8101 49.7449L56.6732 55.5703L56.8555 55.6407L57.0378 55.5703L71.9008 49.7449L66.0755 64.608Z" stroke="#2B2A28"/>
<path d="M38.0755 30.6734L38.0044 30.855L38.0755 31.038L43.9001 45.9004L29.0378 40.0757L28.8555 40.0039L28.6732 40.0757L13.8108 45.9004L19.6355 31.038L19.7066 30.855L19.6355 30.6734L13.8101 15.8104L28.6732 21.6357L28.8555 21.7061L29.0378 21.6357L43.9008 15.8104L38.0755 30.6734Z" stroke="#2B2A28"/>
<path d="M69.0755 60.608L69.0044 60.7896L69.0755 60.9726L74.9001 75.8349L60.0378 70.0103L59.8555 69.9385L59.6732 70.0103L44.8108 75.8349L50.6355 60.9726L50.7066 60.7896L50.6355 60.608L44.8101 45.7449L59.6732 51.5703L59.8555 51.6407L60.0378 51.5703L74.9008 45.7449L69.0755 60.608Z" stroke="#2B2A28"/>
</g>
<defs>
<clipPath id="clip0_2_5098">
<rect width="100" height="100" fill="white"/>
</clipPath>
</defs>
</svg>
