<svg width="100" height="100" viewBox="0 0 100 100" fill="none" xmlns="http://www.w3.org/2000/svg">
<path d="M37.5 13.9814L38.7451 47.5967L71.1016 38.3945L71.4102 39.3447L39.8242 50.917L58.5752 78.8457L57.7666 79.4336L37 52.9697L16.2334 79.4336L15.4248 78.8457L34.1748 50.917L2.58984 39.3447L2.89844 38.3945L35.2539 47.5967L36.5 13.9814H37.5Z" stroke="#2B2A28"/>
<path d="M37.5 86.0186L38.7451 52.4033L71.1016 61.6055L71.4102 60.6553L39.8242 49.083L58.5752 21.1543L57.7666 20.5664L37 47.0303L16.2334 20.5664L15.4248 21.1543L34.1748 49.083L2.58984 60.6553L2.89844 61.6055L35.2539 52.4033L36.5 86.0186H37.5Z" stroke="#2B2A28"/>
</svg>
