<svg width="100" height="100" viewBox="0 0 100 100" fill="none" xmlns="http://www.w3.org/2000/svg">
<path d="M30.2832 73.4121L52.8867 57.875L53.0703 57.7481L53.0986 57.5274L56.4766 31.8154L56.5274 31.4268L56.1631 31.2842L30.1826 21.1094L30 21.0381L29.8174 21.1094L3.83692 31.2842L3.47266 31.4268L3.52344 31.8154L6.90137 57.5273L6.92969 57.748L7.11328 57.875L29.7168 73.4121L30 73.6065L30.2832 73.4121Z" stroke="#2B2A28"/>
<path d="M30.2959 73.4023L49.8857 58.9951L50.0596 58.8672L50.0859 58.6533L53.0127 34.8106L53.0586 34.4356L52.71 34.2891L30.1934 24.8535L30 24.7725L29.8066 24.8535L7.29005 34.2891L6.94141 34.4355L6.98731 34.8105L9.91407 58.6533L9.94043 58.8672L10.1143 58.9951L29.7041 73.4023L30 73.6211L30.2959 73.4023Z" stroke="#2B2A28"/>
<path d="M30.3135 73.3897L46.1357 60.6777L46.2959 60.5479L46.3193 60.3438L48.6836 39.3057L48.7236 38.9463L48.3945 38.7949L30.208 30.4707L30 30.375L29.792 30.4707L11.6055 38.7949L11.2764 38.9463L11.3164 39.3057L13.6807 60.3438L13.7041 60.5479L13.8643 60.6777L29.6865 73.3897L30 73.6416L30.3135 73.3897Z" stroke="#2B2A28"/>
<path d="M30.3535 73.3535L41.6553 62.0537L41.7832 61.9258L41.7998 61.7451L43.4883 43.0449L43.5176 42.7246L43.2383 42.5654L30.2471 35.166L30 35.0244L29.7529 35.166L16.7617 42.5654L16.4824 42.7246L16.5117 43.0449L18.2002 61.7451L18.2168 61.9258L18.3447 62.0537L29.6465 73.3535L30 73.707L30.3535 73.3535Z" stroke="#2B2A28"/>
<path d="M13.9707 62.4232L14.3518 65.389L30.0002 76.3848L45.6486 65.389L46.0297 62.4232" stroke="#2B2A28"/>
<path d="M15.6934 66.2308L16.0335 68.9269L30.001 78.9231L43.9686 68.9269L44.3087 66.2308" stroke="#2B2A28"/>
<path d="M17.5371 70.0384L17.8334 72.7981L29.9986 81.4614L42.1639 72.7981L42.4602 70.0384" stroke="#2B2A28"/>
</svg>
